<mxfile host="app.diagrams.net" modified="2024-07-18T12:28:37.861Z" agent="Mozilla/5.0 (Windows NT 10.0; Win64; x64) AppleWebKit/537.36 (KHTML, like Gecko) Chrome/126.0.0.0 Safari/537.36 Edg/126.0.0.0" version="24.7.1" etag="hXNgccgamezHDH464toi" type="github">
  <diagram name="Page-1" id="hNBWeEzM6wu2DA6Nl1m-">
    <mxGraphModel>
      <root>
        <mxCell id="0" />
        <mxCell id="1" parent="0" />
      </root>
    </mxGraphModel>
  </diagram>
</mxfile>
